# xmcd
#
# Track frame offsets:
#	150
#	12091
#	24796
#	35805
#	46534
#	58487
#	70921
#	81192
#	91511
#	101887
#	111928
#	123235
#	134373
#	145559
#	157429
#	169388
#	181398
#	193201
#	205497
#	217766
#	229350
#	240985
#	253108
#	264974
#	277246
#	290314
#	302114
#	313215
#	324086
#	335320
#
# Disc length: 4627 seconds
#
# Revision: 1
# Processed by: cddbd v1.5.2PL0 Copyright (c) Steve Scherf et al.
# Submitted via: audiograbber 1.83.01
#
DISCID=b812111e
DTITLE=Wells, Kitty - For Always - 60 Greatest Hits and Country Classics
DYEAR=2017
DGENRE=Country
TTITLE0=Three Ways (To Love You)
TTITLE1=(I'll Always Be Your) Fraulein
TTITLE2=One Week Later (with Webb Pierce)
TTITLE3=Lonely Street
TTITLE4=If Teardrops Were Pennies
TTITLE5=Touch And Go Heart
TTITLE6=He's Lost His Love For Me
TTITLE7=Dust On The Bible
TTITLE8=Lonesome Valley
TTITLE9=I Can't Stop Loving You
TTITLE10=She's No Angel
TTITLE11=Jealousy
TTITLE12=Mommy For A Day
TTITLE13=All The Time
TTITLE14=Your Wild Life's Gonna Get You Down
TTITLE15=Amigo's Guitar
TTITLE16=Left To Right
TTITLE17=Carmel By The Sea
TTITLE18=I Can't Tell My Heart That (with Roy Drusky)
TTITLE19=The Other Cheek
TTITLE20=Fickle Fun
TTITLE21=Seasons Of My Heart
TTITLE22=Heartbreak U.S.A.
TTITLE23=There Must Be Another Way To Live
TTITLE24=Heartaches By The Number
TTITLE25=Day Into Night
TTITLE26=Our Mansion Is A Prison Now
TTITLE27=Unloved Unwanted
TTITLE28=Will Your Lawyer Talk To God
TTITLE29=We Missed You
EXTD=
EXTT0=
EXTT1=
EXTT2=
EXTT3=
EXTT4=
EXTT5=
EXTT6=
EXTT7=
EXTT8=
EXTT9=
EXTT10=
EXTT11=
EXTT12=
EXTT13=
EXTT14=
EXTT15=
EXTT16=
EXTT17=
EXTT18=
EXTT19=
EXTT20=
EXTT21=
EXTT22=
EXTT23=
EXTT24=
EXTT25=
EXTT26=
EXTT27=
EXTT28=
EXTT29=
PLAYORDER=
